# This file uses centimeters as units for non-parametric coordinates.

mtllib JukeBox_LightParts.mtl
g default
v -6.371613 5.144816 10.213927
v -6.371613 5.145655 10.664447
v -6.371609 6.293220 10.213941
v -6.371609 6.066996 10.664284
v -6.371613 5.145656 9.764036
v -6.371609 6.067013 9.764200
v -6.371610 5.877912 9.684572
v -6.371610 5.877898 10.743911
v -6.371612 5.383962 9.764076
v -6.371612 5.383962 10.664407
vt 0.625000 0.000000
vt 0.734933 0.000000
vt 0.875000 0.000000
vt 0.875000 0.061275
vt 0.875000 0.198690
vt 0.875000 0.250000
vt 0.734933 0.250000
vt 0.625000 0.250000
vt 0.625000 0.198689
vt 0.625000 0.061275
vn 1.000000 -0.000004 -0.000000
vn 1.000000 -0.000004 -0.000000
vn 1.000000 -0.000004 -0.000000
vn 1.000000 -0.000004 -0.000000
vn 1.000000 -0.000004 -0.000000
vn 1.000000 -0.000004 -0.000000
vn 1.000000 -0.000004 -0.000000
vn 1.000000 -0.000004 -0.000000
vn 1.000000 -0.000004 -0.000000
vn 1.000000 -0.000004 -0.000000
s off
g polySurface65 polySurface49 pCube132
usemtl initialShadingGroup
f 2/1/1 1/2/2 5/3/3 9/4/4 7/5/5 6/6/6 3/7/7 4/8/8 8/9/9 10/10/10
g default
v -6.008464 4.033036 10.584581
v -6.008464 4.033036 9.875291
v -6.008464 4.040340 9.838570
v -6.008464 4.061141 9.807439
v -6.008464 4.092272 9.786637
v -6.008464 4.128993 9.779333
v -6.008464 4.320947 9.779333
v -6.008464 4.357668 9.786637
v -6.008464 4.388799 9.807439
v -6.008464 4.409600 9.838570
v -6.008464 4.416904 9.875291
v -6.008464 4.416904 10.584581
v -6.008464 4.409600 10.621303
v -6.008464 4.388799 10.652433
v -6.008464 4.357668 10.673235
v -6.008464 4.320947 10.680539
v -6.008464 4.128993 10.680539
v -6.008464 4.092272 10.673235
v -6.008464 4.061141 10.652433
v -6.008464 4.040340 10.621303
vt 0.848381 0.000000
vt 0.861690 -0.000000
vt 0.875000 0.000000
vt 0.875000 0.031247
vt 0.875000 0.062494
vt 0.875000 0.187506
vt 0.875000 0.218753
vt 0.875000 0.250000
vt 0.861690 0.250000
vt 0.848381 0.250000
vt 0.651619 0.250000
vt 0.638310 0.250000
vt 0.625000 0.250000
vt 0.625000 0.218753
vt 0.625000 0.187506
vt 0.625000 0.062494
vt 0.625000 0.031247
vt 0.625000 0.000000
vt 0.638310 -0.000000
vt 0.651619 0.000000
vn 1.000000 0.000000 0.000000
vn 1.000000 0.000000 0.000000
vn 1.000000 0.000000 0.000000
vn 1.000000 0.000000 0.000000
vn 1.000000 0.000000 0.000000
vn 1.000000 0.000000 0.000000
vn 1.000000 0.000000 0.000000
vn 1.000000 0.000000 0.000000
vn 1.000000 0.000000 0.000000
vn 1.000000 0.000000 0.000000
vn 1.000000 0.000000 0.000000
vn 1.000000 0.000000 0.000000
vn 1.000000 0.000000 0.000000
vn 1.000000 0.000000 0.000000
vn 1.000000 0.000000 0.000000
vn 1.000000 0.000000 0.000000
vn 1.000000 0.000000 0.000000
vn 1.000000 0.000000 0.000000
vn 1.000000 0.000000 0.000000
vn 1.000000 0.000000 0.000000
s off
g pCube132 polySurface63 polySurface39
usemtl pCube21SG
f 12/11/11 13/12/12 14/13/13 15/14/14 16/15/15 17/16/16 18/17/17 19/18/18 20/19/19 21/20/20 22/21/21 23/22/22 24/23/23 25/24/24 26/25/25 27/26/26 28/27/27 29/28/28 30/29/29 11/30/30
