# This file uses centimeters as units for non-parametric coordinates.

mtllib MobilePhoneScreen.mtl
g default
v 9.996248 5.393281 -4.434646
v 9.998150 5.393281 -4.430610
v 9.193974 5.393281 -5.163793
v 9.189805 5.393281 -5.165285
v 9.185831 5.393281 -5.163401
v 8.746129 5.393281 -4.679624
v 8.744620 5.393281 -4.675425
v 8.746522 5.393281 -4.671388
v 9.548777 5.393281 -3.942259
v 9.552965 5.393281 -3.940767
v 9.556956 5.393281 -3.942652
v 9.996641 5.393281 -4.426410
vt 0.621407 0.494328
vt 0.616696 0.496930
vt 0.382587 0.498017
vt 0.376686 0.497291
vt 0.376717 0.487259
vt 0.376944 0.263109
vt 0.378593 0.255672
vt 0.383304 0.253070
vt 0.617403 0.251992
vt 0.623301 0.252728
vt 0.623297 0.262728
vt 0.623056 0.486891
vn -0.000000 1.000000 0.000000
vn -0.000000 1.000000 0.000000
vn -0.000000 1.000000 0.000000
vn -0.000000 1.000000 0.000000
vn -0.000000 1.000000 0.000000
vn -0.000000 1.000000 0.000000
vn -0.000000 1.000000 0.000000
vn -0.000000 1.000000 0.000000
vn -0.000000 1.000000 0.000000
vn -0.000000 1.000000 0.000000
vn -0.000000 1.000000 0.000000
vn -0.000000 1.000000 0.000000
s off
g polySurface8 pCube80
usemtl initialShadingGroup
f 2/1/1 1/2/2 3/3/3 4/4/4 5/5/5 6/6/6 7/7/7 8/8/8 9/9/9 10/10/10 11/11/11 12/12/12
